<svg width="16" height="16" viewBox="0 0 16 16" fill="none" xmlns="http://www.w3.org/2000/svg">
<path fill-rule="evenodd" clip-rule="evenodd" d="M7.7834 8.98394L11.319 12.5196C11.4369 12.6334 11.5948 12.6964 11.7586 12.695C11.9225 12.6936 12.0793 12.6278 12.1952 12.512C12.311 12.3961 12.3768 12.2393 12.3782 12.0754C12.3796 11.9116 12.3166 11.7537 12.2028 11.6358L8.66715 8.10019L12.2028 4.56457C12.3166 4.44669 12.3796 4.28881 12.3782 4.12494C12.3768 3.96107 12.311 3.80431 12.1952 3.68843C12.0793 3.57255 11.9225 3.50682 11.7586 3.50539C11.5948 3.50397 11.4369 3.56697 11.319 3.68082L7.7834 7.21644L4.24777 3.68082C4.12937 3.56978 3.97241 3.50917 3.8101 3.5118C3.6478 3.51444 3.49289 3.58012 3.37815 3.69494C3.26341 3.80976 3.19785 3.96471 3.19533 4.12702C3.19281 4.28932 3.25353 4.44624 3.36465 4.56457L6.89965 8.10019L3.36402 11.6358C3.30433 11.6935 3.25672 11.7624 3.22396 11.8387C3.1912 11.9149 3.17396 11.997 3.17324 12.0799C3.17252 12.1629 3.18833 12.2452 3.21976 12.322C3.25118 12.3988 3.29759 12.4686 3.35628 12.5273C3.41496 12.586 3.48474 12.6324 3.56155 12.6638C3.63836 12.6953 3.72066 12.7111 3.80365 12.7103C3.88664 12.7096 3.96865 12.6924 4.0449 12.6596C4.12115 12.6269 4.19012 12.5793 4.24777 12.5196L7.7834 8.98394Z" fill="black"/>
</svg>
